<svg xmlns="http://www.w3.org/2000/svg" xmlns:xlink="http://www.w3.org/1999/xlink" id="svg" version="1.1" width="400" height="452.8301886792453" viewBox="0, 0, 400,452.8301886792453"><g id="svgg"><path id="path0" d="M186.262 84.331 C 185.709 84.942,185.600 86.033,185.600 90.950 C 185.600 99.013,185.815 98.800,177.680 98.800 C 170.188 98.800,170.400 98.639,170.400 104.331 C 170.400 110.100,170.537 110.000,162.680 110.000 C 158.453 110.000,156.412 110.148,156.080 110.480 C 155.386 111.174,155.386 164.026,156.080 164.720 C 156.408 165.048,158.360 165.200,162.261 165.200 C 170.783 165.200,170.800 165.217,170.800 173.770 C 170.800 180.833,170.165 180.293,178.809 180.571 C 182.654 180.695,187.717 180.898,190.060 181.023 C 196.053 181.342,195.600 182.573,195.600 165.965 C 195.600 152.956,195.628 152.473,196.429 151.454 L 197.258 150.400 203.400 150.400 C 211.587 150.400,210.800 151.779,210.800 137.441 L 210.800 125.739 211.726 124.870 C 213.060 123.616,224.532 123.531,226.056 124.764 L 227.000 125.528 227.200 138.064 L 227.400 150.600 231.753 150.714 C 237.567 150.866,237.600 150.836,237.600 145.408 C 237.600 139.606,237.607 139.600,245.326 139.600 C 253.654 139.600,252.885 141.252,252.635 123.881 C 252.378 106.009,252.011 99.702,251.200 99.190 C 250.870 98.982,247.852 98.809,244.494 98.806 L 238.388 98.800 237.596 97.500 C 236.902 96.362,236.803 95.476,236.801 90.380 C 236.800 86.388,236.649 84.409,236.320 84.080 C 235.410 83.170,187.094 83.413,186.262 84.331 M76.880 152.080 C 76.550 152.410,76.400 154.416,76.400 158.511 L 76.400 164.462 75.231 165.631 L 74.062 166.800 68.111 166.800 C 60.687 166.800,61.200 166.287,61.200 173.711 L 61.200 179.662 60.031 180.831 L 58.862 182.000 52.911 182.000 C 48.816 182.000,46.810 182.150,46.480 182.480 C 45.785 183.175,45.785 243.225,46.480 243.920 C 46.809 244.249,48.769 244.400,52.700 244.400 C 61.373 244.400,61.200 244.230,61.200 252.784 C 61.200 260.070,60.521 259.491,69.409 259.781 C 73.364 259.910,79.273 260.111,82.539 260.228 C 90.813 260.525,90.400 260.895,90.400 253.173 C 90.400 247.326,90.427 247.137,91.382 246.182 L 92.364 245.200 103.920 245.200 C 114.785 245.200,115.517 245.154,116.167 244.436 C 116.955 243.565,116.708 221.118,115.899 220.100 C 115.614 219.741,113.868 219.600,109.725 219.600 C 101.165 219.600,101.230 219.664,101.213 211.282 C 101.195 202.897,100.883 203.200,109.553 203.200 L 115.942 203.200 116.771 204.254 C 117.525 205.212,117.600 205.844,117.600 211.225 C 117.600 216.072,117.714 217.257,118.229 217.771 C 119.101 218.644,125.543 218.657,127.220 217.790 L 128.400 217.179 128.400 211.259 C 128.400 203.603,128.403 203.600,134.264 203.600 C 140.345 203.600,139.962 205.953,138.975 174.618 C 138.714 166.350,139.025 166.800,133.580 166.800 C 127.601 166.800,127.600 166.799,127.600 158.775 C 127.600 153.928,127.486 152.743,126.971 152.229 C 126.144 151.402,77.702 151.258,76.880 152.080 M212.480 152.080 C 212.149 152.411,212.000 154.440,212.000 158.618 C 212.000 166.427,211.588 166.000,219.131 166.000 C 226.727 166.000,226.400 166.339,226.400 158.480 C 226.400 151.072,226.953 151.600,219.200 151.600 C 214.880 151.600,212.812 151.748,212.480 152.080 M295.680 152.080 C 295.350 152.410,295.200 154.416,295.200 158.511 L 295.200 164.462 294.031 165.631 C 292.894 166.767,292.749 166.800,288.859 166.800 C 283.421 166.800,283.600 166.556,283.600 173.984 C 283.600 182.159,284.021 181.740,275.536 182.000 L 269.000 182.200 268.766 184.923 C 268.397 189.220,268.133 189.371,260.694 189.530 C 257.248 189.604,254.390 189.842,254.104 190.079 C 253.394 190.669,253.371 216.811,254.080 217.520 C 254.410 217.850,256.416 218.000,260.511 218.000 L 266.462 218.000 267.631 219.169 L 268.800 220.338 268.800 226.196 C 268.800 234.081,268.382 233.600,275.240 233.600 C 282.896 233.600,282.400 234.083,282.400 226.640 C 282.400 221.042,282.472 220.416,283.229 219.454 L 284.058 218.400 293.740 218.400 C 306.228 218.400,305.200 219.066,305.200 210.977 C 305.200 202.745,304.732 203.200,313.200 203.200 C 321.704 203.200,321.200 202.688,321.200 211.338 C 321.200 219.859,321.719 219.332,313.060 219.600 L 306.600 219.800 306.400 226.260 C 306.125 235.154,307.202 234.400,294.767 234.400 C 286.119 234.400,284.774 234.483,284.202 235.055 C 283.464 235.793,283.717 258.113,284.475 259.069 C 284.705 259.359,286.774 259.622,289.923 259.761 C 292.715 259.885,297.009 260.094,299.466 260.227 C 305.708 260.565,305.600 260.695,305.600 252.870 C 305.600 244.516,304.399 245.200,319.064 245.200 C 333.032 245.200,332.000 245.635,332.000 239.744 C 332.000 233.962,331.950 234.000,339.546 234.000 C 347.947 234.000,347.200 235.488,347.200 218.744 L 347.200 205.339 348.126 204.470 C 348.990 203.658,349.445 203.600,354.926 203.600 C 363.006 203.600,362.400 204.474,362.400 192.820 C 362.400 185.950,362.249 183.059,361.800 181.335 C 361.404 179.815,361.200 177.115,361.200 173.396 C 361.200 166.324,361.709 166.800,354.149 166.800 L 348.058 166.800 347.229 165.746 C 346.473 164.785,346.400 164.157,346.400 158.626 C 346.400 154.441,346.251 152.411,345.920 152.080 C 345.227 151.387,296.373 151.387,295.680 152.080 M196.870 234.926 C 196.095 235.751,196.000 236.294,196.000 239.903 C 196.000 245.071,195.863 245.200,190.381 245.200 C 184.848 245.200,184.800 245.266,184.800 252.856 C 184.800 260.333,184.850 260.400,190.437 260.400 C 196.103 260.400,196.000 260.268,196.000 267.548 L 196.000 273.450 197.122 274.525 L 198.244 275.600 211.452 275.600 L 224.661 275.600 225.530 274.674 C 226.341 273.812,226.400 273.353,226.400 267.944 C 226.400 260.444,226.434 260.400,232.145 260.400 C 237.795 260.400,238.000 260.136,238.000 252.863 C 238.000 245.578,237.704 245.200,231.995 245.200 C 226.741 245.200,226.400 244.856,226.400 239.544 C 226.400 233.613,227.465 234.000,211.144 234.000 L 197.739 234.000 196.870 234.926 M118.262 291.931 C 117.743 292.505,117.600 293.491,117.600 296.499 C 117.600 303.074,118.213 302.800,103.500 302.800 C 95.213 302.800,92.031 302.929,91.680 303.280 C 91.326 303.634,91.200 307.302,91.200 317.298 L 91.200 330.836 90.218 331.818 C 89.264 332.772,89.070 332.800,83.298 332.800 C 79.213 332.800,77.210 332.950,76.880 333.280 C 76.189 333.971,76.189 371.629,76.880 372.320 C 77.208 372.648,79.160 372.800,83.061 372.800 C 91.231 372.800,91.600 373.084,91.600 379.370 C 91.600 384.014,91.423 383.872,97.600 384.175 C 118.031 385.175,116.800 385.468,116.800 379.592 C 116.800 376.268,116.920 375.556,117.629 374.654 L 118.458 373.600 135.759 373.600 L 153.061 373.600 153.930 372.674 C 154.742 371.810,154.800 371.355,154.800 365.874 C 154.800 358.040,154.437 358.400,162.330 358.400 C 170.666 358.400,170.000 359.534,170.000 345.351 C 170.000 337.023,169.872 333.978,169.500 333.471 C 169.042 332.846,167.795 332.797,154.800 332.894 L 140.600 333.000 140.400 339.460 C 140.139 347.892,140.369 347.600,133.967 347.600 C 127.543 347.600,127.600 347.671,127.600 339.600 C 127.600 331.676,127.654 331.600,133.255 331.600 C 139.071 331.600,138.800 331.931,138.800 324.817 C 138.800 318.993,138.823 318.834,139.836 317.631 L 140.871 316.400 154.556 316.400 C 164.666 316.400,168.365 316.275,168.720 315.920 C 169.615 315.025,169.382 292.688,168.469 291.862 C 167.282 290.788,119.236 290.855,118.262 291.931 M254.084 291.700 C 253.418 292.504,252.958 315.026,253.592 315.790 C 254.027 316.315,256.017 316.400,267.867 316.400 L 281.636 316.400 282.618 317.382 C 283.573 318.337,283.600 318.527,283.600 324.353 C 283.600 331.879,283.391 331.600,289.029 331.600 C 294.942 331.600,294.800 331.403,294.800 339.600 C 294.800 347.858,294.997 347.600,288.670 347.600 C 282.321 347.600,282.400 347.698,282.400 339.754 C 282.400 335.625,282.251 333.611,281.920 333.280 C 281.566 332.926,277.898 332.800,267.902 332.800 L 254.364 332.800 253.382 331.818 C 252.425 330.861,252.400 330.682,252.400 324.698 C 252.400 320.457,252.252 318.412,251.920 318.080 C 251.235 317.395,228.365 317.395,227.680 318.080 C 226.989 318.771,226.989 356.429,227.680 357.120 C 227.985 357.425,229.524 357.600,231.900 357.600 C 238.274 357.600,238.400 357.762,238.400 365.953 C 238.400 373.312,237.875 372.800,245.426 372.800 C 253.621 372.800,253.600 372.785,253.600 378.780 C 253.600 384.224,253.150 383.914,261.418 384.179 C 296.039 385.288,294.400 385.544,294.400 379.023 C 294.400 373.701,294.506 373.600,300.089 373.600 C 305.658 373.600,305.600 373.680,305.600 366.070 C 305.600 358.116,305.314 358.400,313.326 358.400 C 321.690 358.400,320.800 360.867,320.800 337.670 L 320.800 318.539 321.726 317.670 C 322.544 316.901,323.099 316.800,326.512 316.800 C 331.340 316.800,331.200 317.018,331.200 309.506 C 331.200 302.099,332.481 302.800,318.939 302.800 C 304.371 302.800,304.800 303.004,304.800 296.061 C 304.800 293.560,304.628 291.988,304.320 291.680 C 303.609 290.969,254.673 290.988,254.084 291.700 M170.880 318.080 C 170.208 318.752,170.208 330.848,170.880 331.520 C 171.751 332.391,183.321 332.171,184.138 331.269 C 185.296 329.989,185.106 319.060,183.911 318.223 C 182.771 317.424,171.657 317.303,170.880 318.080 " stroke="none" fill="#e4ec17" fill-rule="evenodd"/><path id="path1" d="M185.454 83.229 L 184.400 84.058 184.400 90.167 C 184.400 98.070,184.874 97.600,176.898 97.600 L 170.858 97.600 170.029 98.654 C 169.318 99.557,169.200 100.268,169.200 103.625 C 169.200 108.971,169.439 108.800,161.952 108.800 C 155.988 108.800,155.957 108.805,154.981 109.858 L 154.000 110.917 154.000 137.689 L 154.000 164.462 155.169 165.631 L 156.338 166.800 162.289 166.800 C 169.707 166.800,169.200 166.300,169.200 173.626 C 169.200 178.955,169.276 179.589,170.029 180.546 L 170.858 181.600 176.869 181.600 C 184.748 181.600,185.600 181.935,185.600 185.032 C 185.600 187.767,186.014 188.000,190.885 188.000 C 195.594 188.000,196.400 187.554,196.400 184.951 C 196.400 183.959,196.625 182.754,196.900 182.274 C 197.264 181.638,197.454 177.429,197.600 166.800 L 197.800 152.200 203.800 152.200 L 209.800 152.200 210.003 159.200 C 210.132 163.692,210.383 166.513,210.703 167.074 C 211.060 167.702,211.200 170.588,211.200 177.351 C 211.200 189.280,209.610 188.000,224.427 188.000 C 237.697 188.000,237.200 188.144,237.200 184.298 C 237.200 180.719,237.853 180.400,245.174 180.400 C 252.500 180.400,252.000 180.907,252.000 173.489 L 252.000 167.538 253.169 166.369 L 254.338 165.200 260.289 165.200 C 264.384 165.200,266.390 165.050,266.720 164.720 C 267.631 163.809,267.388 111.494,266.469 110.662 C 265.861 110.112,264.786 110.000,260.133 110.000 L 254.528 110.000 254.064 108.981 C 253.809 108.421,253.600 106.252,253.600 104.161 C 253.600 97.739,253.426 97.600,245.429 97.600 C 238.007 97.600,238.400 98.011,238.400 90.250 C 238.400 84.534,238.372 84.335,237.418 83.382 L 236.436 82.400 211.472 82.400 C 186.822 82.400,186.495 82.410,185.454 83.229 M236.320 84.080 C 236.649 84.409,236.800 86.388,236.801 90.380 C 236.803 95.476,236.902 96.362,237.596 97.500 L 238.388 98.800 244.494 98.806 C 247.852 98.809,250.870 98.982,251.200 99.190 C 252.011 99.702,252.378 106.009,252.635 123.881 C 252.885 141.252,253.654 139.600,245.326 139.600 C 237.607 139.600,237.600 139.606,237.600 145.408 C 237.600 150.836,237.567 150.866,231.753 150.714 L 227.400 150.600 227.200 138.064 L 227.000 125.528 226.056 124.764 C 224.532 123.531,213.060 123.616,211.726 124.870 L 210.800 125.739 210.800 137.441 C 210.800 151.779,211.587 150.400,203.400 150.400 L 197.258 150.400 196.429 151.454 C 195.628 152.473,195.600 152.956,195.600 165.965 C 195.600 182.573,196.053 181.342,190.060 181.023 C 187.717 180.898,182.654 180.695,178.809 180.571 C 170.165 180.293,170.800 180.833,170.800 173.770 C 170.800 165.217,170.783 165.200,162.261 165.200 C 158.360 165.200,156.408 165.048,156.080 164.720 C 155.386 164.026,155.386 111.174,156.080 110.480 C 156.412 110.148,158.453 110.000,162.680 110.000 C 170.537 110.000,170.400 110.100,170.400 104.331 C 170.400 98.639,170.188 98.800,177.680 98.800 C 185.815 98.800,185.600 99.013,185.600 90.950 C 185.600 86.033,185.709 84.942,186.262 84.331 C 187.094 83.413,235.410 83.170,236.320 84.080 M224.757 126.149 C 225.080 126.537,225.182 130.008,225.106 138.049 L 225.000 149.400 218.800 149.400 L 212.600 149.400 212.494 138.049 C 212.365 124.336,211.725 125.600,218.800 125.600 C 222.974 125.600,224.412 125.732,224.757 126.149 M75.629 151.454 C 74.876 152.411,74.800 153.045,74.800 158.374 C 74.800 165.700,75.307 165.200,67.889 165.200 L 61.938 165.200 60.769 166.369 L 59.600 167.538 59.600 173.489 C 59.600 180.907,60.100 180.400,52.774 180.400 C 47.445 180.400,46.811 180.476,45.854 181.229 L 44.800 182.058 44.800 213.200 L 44.800 244.342 45.854 245.171 C 46.812 245.925,47.445 246.000,52.805 246.000 C 60.014 246.000,59.506 245.478,59.670 253.064 C 59.844 261.181,59.356 260.710,67.757 260.874 C 73.145 260.979,74.421 261.120,75.319 261.709 L 76.400 262.418 76.400 268.129 C 76.400 272.038,76.551 273.991,76.880 274.320 C 77.702 275.142,126.144 274.998,126.971 274.171 C 127.487 273.656,127.600 272.465,127.600 267.553 C 127.600 259.665,127.650 259.600,133.733 259.600 C 138.963 259.600,138.669 260.038,138.970 251.800 C 139.356 241.252,139.769 235.047,140.124 234.500 C 140.360 234.135,142.149 234.000,146.759 234.000 L 153.072 234.000 153.536 232.981 C 153.819 232.360,154.005 229.665,154.013 226.081 C 154.030 217.975,154.004 218.000,162.494 218.000 C 166.430 218.000,168.391 217.849,168.720 217.520 C 169.619 216.621,169.383 190.690,168.469 189.862 C 167.856 189.308,166.756 189.200,161.698 189.200 L 155.658 189.200 154.829 188.146 C 154.233 187.389,154.000 186.511,154.000 185.026 C 154.000 182.053,153.884 182.000,147.369 182.000 C 140.161 182.000,140.656 182.570,140.400 173.980 C 140.142 165.340,140.329 165.600,134.361 165.600 C 128.665 165.600,128.800 165.785,128.800 157.981 C 128.800 152.392,128.760 152.102,127.874 151.270 L 126.948 150.400 101.703 150.400 L 76.458 150.400 75.629 151.454 M294.582 151.382 C 293.628 152.336,293.600 152.530,293.600 158.302 C 293.600 165.502,293.812 165.200,288.751 165.200 C 285.150 165.200,284.770 165.277,283.631 166.236 L 282.400 167.271 282.400 173.356 C 282.400 180.932,282.922 180.400,275.489 180.400 L 269.538 180.400 268.369 181.569 C 267.367 182.572,267.200 183.045,267.200 184.889 C 267.200 187.971,267.136 188.000,260.289 188.000 L 254.338 188.000 253.154 189.184 L 251.970 190.369 252.085 204.019 L 252.200 217.670 253.322 218.635 C 254.399 219.561,254.684 219.600,260.373 219.600 C 267.634 219.600,267.109 219.045,267.270 226.874 C 267.447 235.429,267.170 235.141,275.360 235.290 L 281.400 235.400 281.706 240.000 C 281.874 242.530,282.144 247.867,282.306 251.860 C 282.679 261.063,282.510 260.800,288.054 260.800 C 290.732 260.800,292.496 261.005,293.592 261.443 L 295.200 262.087 295.200 267.963 C 295.200 272.001,295.350 273.990,295.680 274.320 C 296.373 275.013,345.227 275.013,345.920 274.320 C 346.251 273.989,346.400 271.959,346.400 267.775 C 346.400 259.415,346.215 259.600,354.575 259.600 C 362.125 259.600,361.600 260.112,361.600 252.753 C 361.600 244.234,361.431 244.400,370.100 244.400 C 374.031 244.400,375.991 244.249,376.320 243.920 C 377.015 243.225,377.015 183.175,376.320 182.480 C 375.990 182.150,374.008 182.000,369.994 182.000 L 364.148 182.000 363.474 180.586 C 362.935 179.456,362.800 177.974,362.800 173.186 C 362.800 165.233,363.159 165.600,355.374 165.600 C 347.504 165.600,348.000 166.047,348.000 158.966 C 348.000 152.941,347.619 151.200,346.182 150.648 C 345.826 150.512,334.291 150.400,320.549 150.400 L 295.564 150.400 294.582 151.382 M126.971 152.229 C 127.486 152.743,127.600 153.928,127.600 158.775 C 127.600 166.799,127.601 166.800,133.580 166.800 C 139.025 166.800,138.714 166.350,138.975 174.618 C 139.962 205.953,140.345 203.600,134.264 203.600 C 128.403 203.600,128.400 203.603,128.400 211.259 L 128.400 217.179 127.220 217.790 C 125.543 218.657,119.101 218.644,118.229 217.771 C 117.714 217.257,117.600 216.072,117.600 211.225 C 117.600 205.844,117.525 205.212,116.771 204.254 L 115.942 203.200 109.553 203.200 C 100.883 203.200,101.195 202.897,101.213 211.282 C 101.230 219.664,101.165 219.600,109.725 219.600 C 113.868 219.600,115.614 219.741,115.899 220.100 C 116.708 221.118,116.955 243.565,116.167 244.436 C 115.517 245.154,114.785 245.200,103.920 245.200 L 92.364 245.200 91.382 246.182 C 90.427 247.137,90.400 247.326,90.400 253.173 C 90.400 260.895,90.813 260.525,82.539 260.228 C 79.273 260.111,73.364 259.910,69.409 259.781 C 60.521 259.491,61.200 260.070,61.200 252.784 C 61.200 244.230,61.373 244.400,52.700 244.400 C 48.769 244.400,46.809 244.249,46.480 243.920 C 45.785 243.225,45.785 183.175,46.480 182.480 C 46.810 182.150,48.816 182.000,52.911 182.000 L 58.862 182.000 60.031 180.831 L 61.200 179.662 61.200 173.711 C 61.200 166.287,60.687 166.800,68.111 166.800 L 74.062 166.800 75.231 165.631 L 76.400 164.462 76.400 158.511 C 76.400 154.416,76.550 152.410,76.880 152.080 C 77.702 151.258,126.144 151.402,126.971 152.229 M225.920 152.080 C 226.839 152.999,226.564 164.236,225.600 165.200 C 224.491 166.309,213.930 166.422,212.731 165.338 C 211.829 164.521,211.609 152.951,212.480 152.080 C 212.812 151.748,214.880 151.600,219.200 151.600 C 223.520 151.600,225.588 151.748,225.920 152.080 M345.920 152.080 C 346.251 152.411,346.400 154.441,346.400 158.626 C 346.400 164.157,346.473 164.785,347.229 165.746 L 348.058 166.800 354.149 166.800 C 361.709 166.800,361.200 166.324,361.200 173.396 C 361.200 177.115,361.404 179.815,361.800 181.335 C 362.249 183.059,362.400 185.950,362.400 192.820 C 362.400 204.474,363.006 203.600,354.926 203.600 C 349.445 203.600,348.990 203.658,348.126 204.470 L 347.200 205.339 347.200 218.744 C 347.200 235.488,347.947 234.000,339.546 234.000 C 331.950 234.000,332.000 233.962,332.000 239.744 C 332.000 245.635,333.032 245.200,319.064 245.200 C 304.399 245.200,305.600 244.516,305.600 252.870 C 305.600 260.695,305.708 260.565,299.466 260.227 C 297.009 260.094,292.715 259.885,289.923 259.761 C 286.774 259.622,284.705 259.359,284.475 259.069 C 283.717 258.113,283.464 235.793,284.202 235.055 C 284.774 234.483,286.119 234.400,294.767 234.400 C 307.202 234.400,306.125 235.154,306.400 226.260 L 306.600 219.800 313.060 219.600 C 321.719 219.332,321.200 219.859,321.200 211.338 C 321.200 202.688,321.704 203.200,313.200 203.200 C 304.732 203.200,305.200 202.745,305.200 210.977 C 305.200 219.066,306.228 218.400,293.740 218.400 L 284.058 218.400 283.229 219.454 C 282.472 220.416,282.400 221.042,282.400 226.640 C 282.400 234.083,282.896 233.600,275.240 233.600 C 268.382 233.600,268.800 234.081,268.800 226.196 L 268.800 220.338 267.631 219.169 L 266.462 218.000 260.511 218.000 C 256.416 218.000,254.410 217.850,254.080 217.520 C 253.371 216.811,253.394 190.669,254.104 190.079 C 254.390 189.842,257.248 189.604,260.694 189.530 C 268.133 189.371,268.397 189.220,268.766 184.923 L 269.000 182.200 275.536 182.000 C 284.021 181.740,283.600 182.159,283.600 173.984 C 283.600 166.556,283.421 166.800,288.859 166.800 C 292.749 166.800,292.894 166.767,294.031 165.631 L 295.200 164.462 295.200 158.511 C 295.200 154.416,295.350 152.410,295.680 152.080 C 296.373 151.387,345.227 151.387,345.920 152.080 M115.510 211.300 L 115.400 217.400 109.400 217.400 L 103.400 217.400 103.290 211.300 L 103.179 205.200 109.400 205.200 L 115.621 205.200 115.510 211.300 M319.400 211.400 L 319.400 217.400 313.200 217.400 L 307.000 217.400 306.888 211.819 C 306.741 204.478,306.073 205.159,313.291 205.290 L 319.400 205.400 319.400 211.400 M138.546 219.629 L 139.600 220.458 139.594 226.529 C 139.586 234.559,140.724 233.777,128.828 233.919 L 118.825 234.039 118.598 233.119 C 118.473 232.614,118.422 229.500,118.485 226.200 L 118.600 220.200 123.881 220.000 C 127.331 219.869,129.335 219.627,129.661 219.300 C 130.570 218.390,137.287 218.638,138.546 219.629 M197.429 220.229 C 196.916 220.741,196.800 221.908,196.800 226.550 L 196.800 232.243 195.481 233.522 C 194.185 234.777,194.094 234.800,190.361 234.800 C 185.580 234.800,185.600 234.780,185.600 239.602 C 185.600 243.422,185.593 243.450,184.281 244.722 L 182.962 246.000 177.310 246.000 C 170.022 246.000,170.400 245.636,170.400 252.655 C 170.400 260.047,169.967 259.600,177.136 259.600 L 183.043 259.600 184.322 260.919 L 185.600 262.238 185.600 267.890 C 185.600 274.955,185.489 274.800,190.550 274.800 C 194.202 274.800,194.257 274.815,195.522 276.119 L 196.800 277.438 196.800 283.057 C 196.800 290.714,195.323 290.000,211.158 290.000 C 227.120 290.000,225.600 290.709,225.600 283.264 L 225.600 277.357 226.919 276.078 C 228.216 274.822,228.303 274.800,232.057 274.800 C 237.279 274.800,237.200 274.909,237.200 267.747 L 237.200 262.157 238.519 260.878 L 239.838 259.600 245.439 259.600 C 252.454 259.600,252.000 260.070,252.000 252.800 C 252.000 245.527,252.460 246.000,245.398 246.000 L 239.757 246.000 238.478 244.681 C 237.238 243.401,237.200 243.258,237.200 239.855 C 237.200 234.814,237.187 234.800,232.467 234.800 L 228.562 234.800 227.081 233.283 L 225.600 231.766 225.600 226.163 C 225.600 222.338,225.448 220.408,225.120 220.080 C 224.307 219.267,198.250 219.407,197.429 220.229 M304.200 226.400 L 304.200 232.600 294.400 232.600 L 284.600 232.600 284.489 226.818 C 284.427 223.639,284.468 220.800,284.579 220.511 C 284.739 220.093,286.763 220.008,294.490 220.093 L 304.200 220.200 304.200 226.400 M225.474 234.870 C 226.316 235.661,226.400 236.084,226.400 239.544 C 226.400 244.856,226.741 245.200,231.995 245.200 C 237.704 245.200,238.000 245.578,238.000 252.863 C 238.000 260.136,237.795 260.400,232.145 260.400 C 226.434 260.400,226.400 260.444,226.400 267.944 C 226.400 273.353,226.341 273.812,225.530 274.674 L 224.661 275.600 211.452 275.600 L 198.244 275.600 197.122 274.525 L 196.000 273.450 196.000 267.548 C 196.000 260.268,196.103 260.400,190.437 260.400 C 184.850 260.400,184.800 260.333,184.800 252.856 C 184.800 245.266,184.848 245.200,190.381 245.200 C 195.863 245.200,196.000 245.071,196.000 239.903 C 196.000 236.294,196.095 235.751,196.870 234.926 L 197.739 234.000 211.144 234.000 C 224.356 234.000,224.562 234.012,225.474 234.870 M117.270 290.926 C 116.500 291.746,116.400 292.298,116.400 295.752 C 116.400 301.717,117.599 301.200,103.768 301.200 L 91.964 301.200 90.982 302.182 L 90.000 303.164 90.000 316.702 C 90.000 326.698,89.874 330.366,89.520 330.720 C 89.190 331.050,87.184 331.200,83.089 331.200 L 77.138 331.200 75.969 332.369 L 74.800 333.538 74.800 352.800 L 74.800 372.062 75.969 373.231 L 77.138 374.400 83.089 374.400 C 90.338 374.400,90.000 374.151,90.000 379.498 C 90.000 385.278,90.327 385.600,96.202 385.600 C 99.218 385.600,100.780 385.776,101.620 386.210 L 102.800 386.821 102.800 390.730 C 102.800 396.133,100.016 395.600,128.218 395.600 C 156.972 395.600,154.000 396.233,154.000 390.104 C 154.000 384.237,154.324 384.000,162.351 384.000 C 169.529 384.000,169.200 384.245,169.200 378.902 C 169.200 372.858,169.275 372.800,177.133 372.800 C 184.430 372.800,183.907 373.339,184.070 365.660 L 184.200 359.529 185.322 358.564 C 186.350 357.681,186.789 357.600,190.542 357.600 C 196.131 357.600,195.600 359.680,195.600 337.782 C 195.600 315.597,196.100 317.601,190.569 317.598 C 187.558 317.597,186.692 317.441,185.032 316.598 C 183.199 315.668,182.662 315.600,177.173 315.600 L 171.281 315.600 171.044 308.900 C 170.481 292.915,170.391 291.870,169.493 290.900 L 168.661 290.000 143.400 290.000 L 118.139 290.000 117.270 290.926 M253.210 290.790 C 252.082 291.918,252.047 292.238,251.707 304.400 L 251.400 315.400 244.800 315.668 C 234.898 316.069,228.705 316.416,227.707 316.625 C 225.660 317.053,225.600 317.661,225.600 338.011 L 225.600 356.862 226.769 358.031 C 227.914 359.175,228.028 359.200,232.155 359.200 C 237.385 359.200,237.200 358.938,237.200 366.341 C 237.200 374.530,237.061 374.400,245.766 374.400 C 252.709 374.400,252.400 374.141,252.400 379.945 C 252.400 385.554,252.466 385.600,260.474 385.600 C 265.039 385.600,266.717 385.743,267.620 386.210 L 268.800 386.821 268.800 390.730 C 268.800 396.115,266.469 395.600,290.851 395.600 C 315.618 395.600,313.200 396.166,313.200 390.371 C 313.200 384.599,312.869 384.800,322.367 384.800 C 332.051 384.800,331.200 385.289,331.200 379.726 C 331.200 375.189,331.213 375.126,332.369 373.969 L 333.538 372.800 339.489 372.800 C 343.584 372.800,345.590 372.650,345.920 372.320 C 346.611 371.629,346.611 333.971,345.920 333.280 C 345.590 332.950,343.584 332.800,339.489 332.800 L 333.538 332.800 332.369 331.631 L 331.200 330.462 331.200 324.811 C 331.200 320.204,331.328 318.924,331.895 317.880 C 332.769 316.269,333.163 305.043,332.409 303.223 C 331.620 301.316,330.828 301.200,318.661 301.200 C 305.340 301.200,306.400 301.641,306.400 296.102 C 306.400 292.242,306.334 291.898,305.418 290.982 L 304.436 290.000 279.218 290.000 C 254.642 290.000,253.980 290.020,253.210 290.790 M168.469 291.862 C 169.382 292.688,169.615 315.025,168.720 315.920 C 168.365 316.275,164.666 316.400,154.556 316.400 L 140.871 316.400 139.836 317.631 C 138.823 318.834,138.800 318.993,138.800 324.817 C 138.800 331.931,139.071 331.600,133.255 331.600 C 127.654 331.600,127.600 331.676,127.600 339.600 C 127.600 347.671,127.543 347.600,133.967 347.600 C 140.369 347.600,140.139 347.892,140.400 339.460 L 140.600 333.000 154.800 332.894 C 167.795 332.797,169.042 332.846,169.500 333.471 C 169.872 333.978,170.000 337.023,170.000 345.351 C 170.000 359.534,170.666 358.400,162.330 358.400 C 154.437 358.400,154.800 358.040,154.800 365.874 C 154.800 371.355,154.742 371.810,153.930 372.674 L 153.061 373.600 135.759 373.600 L 118.458 373.600 117.629 374.654 C 116.920 375.556,116.800 376.268,116.800 379.592 C 116.800 385.468,118.031 385.175,97.600 384.175 C 91.423 383.872,91.600 384.014,91.600 379.370 C 91.600 373.084,91.231 372.800,83.061 372.800 C 79.160 372.800,77.208 372.648,76.880 372.320 C 76.189 371.629,76.189 333.971,76.880 333.280 C 77.210 332.950,79.213 332.800,83.298 332.800 C 89.070 332.800,89.264 332.772,90.218 331.818 L 91.200 330.836 91.200 317.298 C 91.200 307.302,91.326 303.634,91.680 303.280 C 92.031 302.929,95.213 302.800,103.500 302.800 C 118.213 302.800,117.600 303.074,117.600 296.499 C 117.600 290.601,114.692 291.200,143.330 291.200 C 165.480 291.200,167.805 291.261,168.469 291.862 M304.320 291.680 C 304.628 291.988,304.800 293.560,304.800 296.061 C 304.800 303.004,304.371 302.800,318.939 302.800 C 332.481 302.800,331.200 302.099,331.200 309.506 C 331.200 317.018,331.340 316.800,326.512 316.800 C 323.099 316.800,322.544 316.901,321.726 317.670 L 320.800 318.539 320.800 337.670 C 320.800 360.867,321.690 358.400,313.326 358.400 C 305.314 358.400,305.600 358.116,305.600 366.070 C 305.600 373.680,305.658 373.600,300.089 373.600 C 294.506 373.600,294.400 373.701,294.400 379.023 C 294.400 385.544,296.039 385.288,261.418 384.179 C 253.150 383.914,253.600 384.224,253.600 378.780 C 253.600 372.785,253.621 372.800,245.426 372.800 C 237.875 372.800,238.400 373.312,238.400 365.953 C 238.400 357.762,238.274 357.600,231.900 357.600 C 229.524 357.600,227.985 357.425,227.680 357.120 C 226.989 356.429,226.989 318.771,227.680 318.080 C 228.365 317.395,251.235 317.395,251.920 318.080 C 252.252 318.412,252.400 320.457,252.400 324.698 C 252.400 330.682,252.425 330.861,253.382 331.818 L 254.364 332.800 267.902 332.800 C 277.898 332.800,281.566 332.926,281.920 333.280 C 282.251 333.611,282.400 335.625,282.400 339.754 C 282.400 347.698,282.321 347.600,288.670 347.600 C 294.997 347.600,294.800 347.858,294.800 339.600 C 294.800 331.403,294.942 331.600,289.029 331.600 C 283.391 331.600,283.600 331.879,283.600 324.353 C 283.600 318.527,283.573 318.337,282.618 317.382 L 281.636 316.400 267.867 316.400 C 256.017 316.400,254.027 316.315,253.592 315.790 C 252.958 315.026,253.418 292.504,254.084 291.700 C 254.673 290.988,303.609 290.969,304.320 291.680 M183.911 318.223 C 185.106 319.060,185.296 329.989,184.138 331.269 C 183.321 332.171,171.751 332.391,170.880 331.520 C 170.208 330.848,170.208 318.752,170.880 318.080 C 171.657 317.303,182.771 317.424,183.911 318.223 M168.310 324.500 L 168.200 330.600 154.600 330.600 L 141.000 330.600 140.888 325.019 C 140.827 321.950,140.866 319.205,140.976 318.919 C 141.134 318.508,143.999 318.400,154.798 318.400 L 168.421 318.400 168.310 324.500 M281.600 324.605 L 281.600 330.811 267.900 330.705 L 254.200 330.600 254.088 325.019 C 254.027 321.950,254.066 319.205,254.176 318.919 C 254.334 318.508,257.197 318.400,267.987 318.400 L 281.600 318.400 281.600 324.605 M138.200 339.600 L 138.200 345.800 134.000 345.800 L 129.800 345.800 129.689 340.018 C 129.545 332.568,129.165 333.149,134.093 333.286 L 138.200 333.400 138.200 339.600 M292.720 333.680 C 293.454 334.414,293.383 344.950,292.640 345.567 C 292.279 345.866,290.754 345.990,288.340 345.916 L 284.600 345.800 284.489 340.018 C 284.427 336.839,284.467 334.004,284.576 333.718 C 284.843 333.022,292.028 332.988,292.720 333.680 " stroke="none" fill="#74840c" fill-rule="evenodd"/><path id="path2" d="M184.160 90.600 C 184.161 93.900,184.222 95.197,184.298 93.482 C 184.373 91.767,184.372 89.067,184.297 87.482 C 184.221 85.897,184.159 87.300,184.160 90.600 M174.518 97.498 C 176.233 97.573,178.933 97.572,180.518 97.497 C 182.103 97.421,180.700 97.359,177.400 97.360 C 174.100 97.361,172.803 97.422,174.518 97.498 M128.959 158.400 C 128.959 161.590,129.021 162.895,129.097 161.300 C 129.173 159.705,129.173 157.095,129.097 155.500 C 129.021 153.905,128.959 155.210,128.959 158.400 M44.590 213.200 C 44.590 230.030,44.640 236.915,44.700 228.500 C 44.760 220.085,44.760 206.315,44.700 197.900 C 44.640 189.485,44.590 196.370,44.590 213.200 M322.467 384.784 C 312.685 385.044,313.203 384.731,313.194 390.376 C 313.191 392.479,313.024 394.459,312.824 394.775 C 312.577 395.166,312.707 395.664,313.230 396.329 C 314.369 397.776,314.372 405.852,313.235 407.256 L 312.470 408.200 156.235 408.146 L -0.000 408.092 -0.000 430.446 L 0.000 452.800 181.600 452.800 L 363.200 452.800 363.200 442.574 C 363.200 436.289,363.360 432.049,363.614 431.574 C 364.014 430.826,364.641 430.800,382.014 430.800 L 400.000 430.800 400.000 408.200 L 400.000 385.600 366.476 385.600 C 337.620 385.600,332.845 385.518,332.176 385.013 C 331.749 384.690,331.220 384.457,331.000 384.496 C 330.780 384.535,326.940 384.665,322.467 384.784 " stroke="none" fill="#5a5e66" fill-rule="evenodd"/><path id="path3" d="M184.162 82.441 C 183.491 83.181,183.384 84.066,183.266 89.807 L 183.132 96.332 176.607 96.466 C 168.126 96.640,168.464 96.376,168.312 102.951 L 168.200 107.800 161.319 108.000 C 156.433 108.142,154.287 108.351,153.919 108.720 C 152.935 109.706,152.970 165.227,153.956 166.446 C 154.700 167.367,154.962 167.407,161.464 167.600 L 168.200 167.800 168.400 174.487 C 168.660 183.184,168.024 182.561,176.813 182.734 L 183.600 182.867 183.600 184.647 C 183.600 189.683,188.176 191.398,196.225 189.379 C 199.117 188.654,208.818 188.761,212.298 189.556 C 213.736 189.885,217.923 189.999,225.588 189.918 C 238.877 189.778,238.455 189.926,238.800 185.290 L 239.000 182.600 245.490 182.400 C 254.182 182.132,253.732 182.582,254.000 173.890 L 254.200 167.400 260.690 167.200 C 266.773 167.013,267.238 166.943,268.090 166.089 L 269.000 165.178 269.117 138.889 C 269.268 104.988,270.234 108.679,261.133 108.400 L 254.600 108.200 254.400 103.200 C 254.125 96.333,254.227 96.406,244.900 96.402 L 239.200 96.400 239.200 89.800 C 239.200 83.733,239.135 83.135,238.400 82.400 C 237.109 81.109,185.333 81.149,184.162 82.441 M237.474 83.270 C 238.362 84.104,238.400 84.385,238.400 90.138 C 238.400 98.028,237.997 97.600,245.429 97.600 C 253.426 97.600,253.600 97.739,253.600 104.161 C 253.600 106.252,253.809 108.421,254.064 108.981 L 254.528 110.000 260.133 110.000 C 264.786 110.000,265.861 110.112,266.469 110.662 C 267.388 111.494,267.631 163.809,266.720 164.720 C 266.390 165.050,264.384 165.200,260.289 165.200 L 254.338 165.200 253.169 166.369 L 252.000 167.538 252.000 173.489 C 252.000 180.907,252.500 180.400,245.174 180.400 C 237.853 180.400,237.200 180.719,237.200 184.298 C 237.200 188.144,237.697 188.000,224.427 188.000 C 209.610 188.000,211.200 189.280,211.200 177.351 C 211.200 170.588,211.060 167.702,210.703 167.074 C 210.383 166.513,210.132 163.692,210.003 159.200 L 209.800 152.200 203.800 152.200 L 197.800 152.200 197.600 166.800 C 197.454 177.429,197.264 181.638,196.900 182.274 C 196.625 182.754,196.400 183.959,196.400 184.951 C 196.400 187.554,195.594 188.000,190.885 188.000 C 186.014 188.000,185.600 187.767,185.600 185.032 C 185.600 181.935,184.748 181.600,176.869 181.600 L 170.858 181.600 170.029 180.546 C 169.276 179.589,169.200 178.955,169.200 173.626 C 169.200 166.292,169.723 166.800,162.178 166.800 C 156.299 166.800,156.085 166.771,155.058 165.819 L 154.000 164.838 154.000 137.801 L 154.000 110.764 154.982 109.782 C 155.935 108.828,156.134 108.800,161.850 108.800 C 169.366 108.800,169.200 108.918,169.200 103.571 C 169.200 97.406,169.110 97.474,177.600 97.200 L 183.800 97.000 184.000 90.800 C 184.196 84.736,184.529 83.136,185.695 82.666 C 185.973 82.555,197.528 82.449,211.374 82.432 L 236.548 82.400 237.474 83.270 M212.843 126.149 C 212.520 126.537,212.418 130.008,212.494 138.049 L 212.600 149.400 218.800 149.400 L 225.000 149.400 225.106 138.049 C 225.235 124.336,225.875 125.600,218.800 125.600 C 214.626 125.600,213.188 125.732,212.843 126.149 M76.304 149.479 C 74.256 149.803,74.000 150.734,74.000 157.863 L 74.000 164.347 67.213 164.474 C 58.397 164.638,59.038 163.997,58.874 172.813 L 58.747 179.600 52.218 179.600 C 46.385 179.600,45.588 179.682,44.744 180.365 L 43.800 181.129 43.800 213.200 L 43.800 245.271 44.744 246.035 C 45.588 246.718,46.385 246.800,52.218 246.800 L 58.747 246.800 58.874 253.587 C 59.038 262.418,58.366 261.761,67.413 261.933 L 74.400 262.066 74.400 268.179 C 74.400 273.758,74.472 274.384,75.229 275.346 L 76.058 276.400 101.596 276.400 C 115.642 276.400,127.424 276.289,127.778 276.153 C 129.082 275.653,129.399 274.235,129.600 268.000 L 129.800 261.800 134.335 261.600 C 140.781 261.316,140.800 261.290,140.800 252.951 C 140.800 244.635,140.305 245.200,147.591 245.200 C 154.924 245.200,154.800 245.294,154.800 239.737 C 154.800 237.710,155.010 235.545,155.268 234.926 C 155.525 234.307,155.840 230.740,155.968 227.000 L 156.200 220.200 162.736 220.000 C 171.670 219.727,170.800 221.494,170.800 203.618 C 170.800 186.085,171.712 187.880,162.660 187.600 L 156.200 187.400 155.953 184.800 C 155.512 180.168,155.703 180.278,147.600 180.007 L 141.400 179.800 141.200 172.913 C 140.947 164.211,141.281 164.651,134.786 164.458 L 130.000 164.316 129.998 158.658 C 129.995 152.614,129.602 150.285,128.492 149.740 C 127.799 149.400,78.369 149.153,76.304 149.479 M295.011 149.549 C 293.098 149.959,292.812 151.067,292.806 158.100 L 292.800 164.400 288.660 164.400 C 285.353 164.400,282.621 164.781,281.924 165.339 C 281.882 165.373,281.747 168.550,281.624 172.400 L 281.400 179.400 274.519 179.600 C 266.460 179.834,266.718 179.697,266.420 183.900 L 266.200 187.000 259.513 187.200 C 250.444 187.471,251.400 185.509,251.400 203.850 L 251.400 218.871 252.344 219.635 C 253.188 220.318,253.985 220.400,259.819 220.400 L 266.350 220.400 266.475 227.559 C 266.582 233.703,266.699 234.828,267.300 235.491 C 267.864 236.112,268.000 237.005,268.000 240.070 C 268.000 245.298,267.862 245.200,275.281 245.200 L 281.100 245.200 281.350 246.450 C 281.488 247.137,281.600 250.448,281.600 253.806 C 281.600 262.003,281.397 261.751,288.165 261.941 L 293.200 262.082 293.200 268.187 C 293.200 273.758,293.273 274.384,294.029 275.346 L 294.858 276.400 320.585 276.400 C 351.742 276.400,348.121 277.450,348.400 268.336 L 348.600 261.800 355.200 261.565 C 358.830 261.436,361.841 261.301,361.891 261.265 C 363.053 260.434,363.412 258.659,363.600 252.820 L 363.800 246.600 370.336 246.400 C 379.492 246.120,378.400 250.625,378.400 213.138 L 378.400 181.964 377.418 180.982 C 376.461 180.024,376.284 180.000,370.261 180.000 C 362.904 180.000,363.602 180.789,363.594 172.467 C 363.586 164.108,363.903 164.400,354.808 164.400 L 348.867 164.400 348.734 157.619 C 348.588 150.212,348.564 150.139,346.149 149.578 C 344.417 149.177,296.877 149.150,295.011 149.549 M127.382 150.648 C 128.815 151.198,129.200 152.944,129.200 158.900 C 129.200 165.924,128.947 165.600,134.418 165.600 C 140.320 165.600,140.142 165.351,140.400 173.980 C 140.656 182.570,140.161 182.000,147.369 182.000 C 153.884 182.000,154.000 182.053,154.000 185.026 C 154.000 186.511,154.233 187.389,154.829 188.146 L 155.658 189.200 161.698 189.200 C 166.756 189.200,167.856 189.308,168.469 189.862 C 169.383 190.690,169.619 216.621,168.720 217.520 C 168.391 217.849,166.430 218.000,162.494 218.000 C 154.004 218.000,154.030 217.975,154.013 226.081 C 154.005 229.665,153.819 232.360,153.536 232.981 L 153.072 234.000 146.759 234.000 C 142.149 234.000,140.360 234.135,140.124 234.500 C 139.769 235.047,139.356 241.252,138.970 251.800 C 138.669 260.038,138.963 259.600,133.733 259.600 C 127.650 259.600,127.600 259.665,127.600 267.553 C 127.600 272.465,127.487 273.656,126.971 274.171 C 126.144 274.998,77.702 275.142,76.880 274.320 C 76.551 273.991,76.400 272.038,76.400 268.129 L 76.400 262.418 75.319 261.709 C 74.421 261.120,73.145 260.979,67.757 260.874 C 59.356 260.710,59.844 261.181,59.670 253.064 C 59.506 245.471,60.027 246.000,52.720 246.000 L 46.738 246.000 45.569 244.831 L 44.400 243.662 44.400 213.200 L 44.400 182.738 45.569 181.569 L 46.738 180.400 52.689 180.400 C 60.113 180.400,59.600 180.913,59.600 173.489 L 59.600 167.538 60.769 166.369 L 61.938 165.200 67.889 165.200 C 75.316 165.200,74.800 165.719,74.800 158.246 C 74.800 152.642,74.857 152.191,75.670 151.326 L 76.539 150.400 101.637 150.400 C 115.441 150.400,127.026 150.512,127.382 150.648 M347.171 151.454 C 347.928 152.416,348.000 153.042,348.000 158.640 C 348.000 166.098,347.473 165.600,355.374 165.600 C 363.159 165.600,362.800 165.233,362.800 173.186 C 362.800 177.974,362.935 179.456,363.474 180.586 L 364.148 182.000 369.994 182.000 C 374.008 182.000,375.990 182.150,376.320 182.480 C 377.015 183.175,377.015 243.225,376.320 243.920 C 375.991 244.249,374.031 244.400,370.100 244.400 C 361.431 244.400,361.600 244.234,361.600 252.753 C 361.600 260.112,362.125 259.600,354.575 259.600 C 346.215 259.600,346.400 259.415,346.400 267.775 C 346.400 271.959,346.251 273.989,345.920 274.320 C 345.227 275.013,296.373 275.013,295.680 274.320 C 295.350 273.990,295.200 272.001,295.200 267.963 L 295.200 262.087 293.592 261.443 C 292.496 261.005,290.732 260.800,288.054 260.800 C 282.510 260.800,282.679 261.063,282.306 251.860 C 282.144 247.867,281.874 242.530,281.706 240.000 L 281.400 235.400 275.327 235.290 L 269.254 235.179 268.227 233.959 C 267.223 232.766,267.200 232.604,267.200 226.649 C 267.200 219.086,267.686 219.600,260.539 219.600 C 251.432 219.600,252.000 220.654,252.000 203.761 C 252.000 186.720,251.321 188.000,260.353 188.000 C 267.178 188.000,267.200 187.990,267.200 184.702 C 267.200 180.723,267.797 180.400,275.153 180.400 C 282.878 180.400,282.400 180.874,282.400 173.216 C 282.400 165.346,282.323 165.451,288.264 165.263 C 293.901 165.084,293.600 165.471,293.600 158.405 C 293.600 153.045,293.675 152.412,294.429 151.454 L 295.258 150.400 320.800 150.400 L 346.342 150.400 347.171 151.454 M103.290 211.300 L 103.400 217.400 109.400 217.400 L 115.400 217.400 115.510 211.300 L 115.621 205.200 109.400 205.200 L 103.179 205.200 103.290 211.300 M306.980 205.709 C 306.868 206.000,306.827 208.750,306.888 211.819 L 307.000 217.400 313.200 217.400 L 319.400 217.400 319.400 211.400 L 319.400 205.400 313.291 205.290 C 308.512 205.203,307.139 205.294,306.980 205.709 M197.000 218.054 C 195.326 218.986,195.200 219.530,195.200 225.796 C 195.200 233.145,195.449 232.800,190.142 232.800 C 184.219 232.800,183.870 233.145,183.600 239.265 L 183.400 243.800 177.200 244.000 C 168.359 244.285,168.800 243.813,168.800 252.988 C 168.800 261.853,168.319 261.339,176.864 261.600 L 183.400 261.800 183.618 268.000 C 183.918 276.562,183.793 276.400,190.094 276.400 C 195.462 276.400,195.200 276.036,195.200 283.498 C 195.200 289.482,195.225 289.661,196.182 290.618 L 197.164 291.600 211.338 291.600 C 229.064 291.600,227.352 292.431,227.530 283.742 C 227.688 276.005,227.405 276.400,232.787 276.400 C 238.704 276.400,238.541 276.620,238.800 268.260 L 239.000 261.800 245.536 261.600 L 252.071 261.400 253.036 260.278 C 254.526 258.543,254.526 247.057,253.036 245.322 L 252.071 244.200 245.536 244.000 L 239.000 243.800 238.800 239.113 C 238.538 232.963,238.637 233.062,232.487 232.800 L 227.800 232.600 227.600 226.110 C 227.318 216.944,228.982 217.824,211.689 217.704 C 202.057 217.637,197.555 217.745,197.000 218.054 M129.661 219.300 C 129.335 219.627,127.331 219.869,123.881 220.000 L 118.600 220.200 118.485 226.200 C 118.422 229.500,118.473 232.614,118.598 233.119 L 118.825 234.039 128.828 233.919 C 140.724 233.777,139.586 234.559,139.594 226.529 L 139.600 220.458 138.546 219.629 C 137.287 218.638,130.570 218.390,129.661 219.300 M225.120 220.080 C 225.448 220.408,225.600 222.338,225.600 226.163 L 225.600 231.766 227.081 233.283 L 228.562 234.800 232.467 234.800 C 237.187 234.800,237.200 234.814,237.200 239.855 C 237.200 243.258,237.238 243.401,238.478 244.681 L 239.757 246.000 245.398 246.000 C 252.460 246.000,252.000 245.527,252.000 252.800 C 252.000 260.070,252.454 259.600,245.439 259.600 L 239.838 259.600 238.519 260.878 L 237.200 262.157 237.200 267.747 C 237.200 274.909,237.279 274.800,232.057 274.800 C 228.303 274.800,228.216 274.822,226.919 276.078 L 225.600 277.357 225.600 283.264 C 225.600 290.709,227.120 290.000,211.158 290.000 C 195.323 290.000,196.800 290.714,196.800 283.057 L 196.800 277.438 195.522 276.119 C 194.257 274.815,194.202 274.800,190.550 274.800 C 185.489 274.800,185.600 274.955,185.600 267.890 L 185.600 262.238 184.322 260.919 L 183.043 259.600 177.136 259.600 C 169.967 259.600,170.400 260.047,170.400 252.655 C 170.400 245.636,170.022 246.000,177.310 246.000 L 182.962 246.000 184.281 244.722 C 185.593 243.450,185.600 243.422,185.600 239.602 C 185.600 234.780,185.580 234.800,190.361 234.800 C 194.094 234.800,194.185 234.777,195.481 233.522 L 196.800 232.243 196.800 226.550 C 196.800 221.908,196.916 220.741,197.429 220.229 C 198.250 219.407,224.307 219.267,225.120 220.080 M284.579 220.511 C 284.468 220.800,284.427 223.639,284.489 226.818 L 284.600 232.600 294.400 232.600 L 304.200 232.600 304.200 226.400 L 304.200 220.200 294.490 220.093 C 286.763 220.008,284.739 220.093,284.579 220.511 M116.275 289.917 C 115.769 290.476,115.602 291.683,115.513 295.417 L 115.400 300.200 102.919 300.400 C 93.435 300.552,90.314 300.725,89.919 301.120 C 89.521 301.518,89.353 304.960,89.200 315.920 L 89.000 330.200 82.264 330.400 C 72.978 330.676,74.000 327.905,74.000 352.800 C 74.000 377.695,72.978 374.924,82.264 375.200 L 89.000 375.400 89.200 380.282 C 89.451 386.417,89.176 386.150,95.519 386.400 L 100.600 386.600 100.800 391.137 C 101.098 397.894,97.962 397.200,128.212 397.200 C 142.139 397.200,153.824 397.089,154.178 396.953 C 155.375 396.494,155.799 395.015,156.000 390.600 L 156.200 386.200 162.687 386.000 C 170.898 385.747,170.529 386.033,170.800 379.687 L 171.000 375.000 177.400 374.800 C 182.972 374.626,185.046 374.296,185.666 373.486 C 185.702 373.439,185.837 370.340,185.966 366.600 L 186.200 359.800 190.860 359.600 C 197.915 359.297,197.200 361.761,197.200 337.738 C 197.200 313.708,197.809 316.000,191.419 316.000 C 189.098 316.000,186.784 315.793,186.219 315.536 L 185.200 315.072 185.200 309.390 C 185.200 301.527,185.273 301.600,177.392 301.600 C 170.657 301.600,171.214 302.179,171.205 295.162 C 171.201 291.181,171.096 290.430,170.469 289.862 C 169.295 288.800,117.238 288.853,116.275 289.917 M252.176 289.767 C 251.484 290.273,251.385 290.945,251.262 295.967 L 251.123 301.600 245.343 301.600 C 237.429 301.600,237.600 301.429,237.600 309.332 L 237.600 315.100 236.350 315.350 C 235.663 315.488,233.177 315.600,230.826 315.600 C 224.324 315.600,225.000 313.048,225.000 337.603 L 225.000 358.471 225.944 359.235 C 226.749 359.887,227.554 360.000,231.403 360.000 L 235.918 360.000 236.090 366.500 C 236.329 375.534,235.979 375.200,245.218 375.200 L 251.116 375.200 251.258 379.986 C 251.451 386.481,251.011 386.147,259.713 386.400 L 266.600 386.600 266.800 391.137 C 267.096 397.850,264.603 397.200,290.071 397.200 C 303.907 397.200,311.521 397.344,312.026 397.614 C 312.973 398.121,313.188 404.916,312.297 406.135 C 311.822 406.784,302.817 406.832,156.072 406.970 C 70.425 407.050,0.242 407.225,0.109 407.358 C -0.569 408.036,11.510 408.097,156.415 408.147 L 312.470 408.200 313.235 407.256 C 314.324 405.912,314.373 397.746,313.300 396.429 L 312.600 395.569 291.249 395.591 C 275.834 395.607,269.746 395.487,269.349 395.158 C 268.952 394.828,268.800 393.614,268.800 390.761 L 268.800 386.821 267.620 386.210 C 266.717 385.743,265.039 385.600,260.474 385.600 C 252.466 385.600,252.400 385.554,252.400 379.945 C 252.400 374.115,252.758 374.400,245.440 374.400 C 239.842 374.400,239.216 374.328,238.254 373.571 L 237.200 372.742 237.200 366.633 C 237.200 358.987,237.359 359.205,231.769 359.187 C 225.179 359.166,225.600 360.649,225.600 337.480 C 225.600 319.207,225.629 318.471,226.388 317.506 C 227.252 316.407,227.796 316.354,245.000 315.659 L 251.400 315.400 251.649 308.000 C 251.786 303.930,251.921 298.657,251.949 296.282 C 251.996 292.265,252.068 291.895,252.982 290.982 L 253.964 290.000 279.353 290.000 L 304.742 290.000 305.571 291.054 C 306.286 291.963,306.400 292.666,306.400 296.174 C 306.400 301.629,305.353 301.200,318.661 301.200 C 330.828 301.200,331.620 301.316,332.409 303.223 C 333.163 305.043,332.769 316.269,331.895 317.880 C 331.328 318.924,331.200 320.204,331.200 324.811 L 331.200 330.462 332.369 331.631 L 333.538 332.800 339.489 332.800 C 343.584 332.800,345.590 332.950,345.920 333.280 C 346.611 333.971,346.611 371.629,345.920 372.320 C 345.590 372.650,343.584 372.800,339.489 372.800 L 333.538 372.800 332.369 373.969 C 330.748 375.591,330.537 383.890,332.089 384.977 C 333.416 385.907,400.000 385.929,400.000 385.000 C 400.000 384.472,396.072 384.400,367.049 384.400 C 339.338 384.400,334.024 384.311,333.635 383.842 C 333.331 383.476,333.211 381.852,333.286 379.142 L 333.400 375.000 339.890 374.800 C 345.973 374.613,346.437 374.543,347.290 373.689 L 348.200 372.778 348.200 352.800 L 348.200 332.822 347.290 331.911 C 346.437 331.057,345.973 330.987,339.890 330.800 L 333.400 330.600 333.547 316.896 C 333.684 304.092,333.577 302.160,332.651 300.720 C 332.623 300.676,326.930 300.541,320.000 300.420 L 307.400 300.200 307.200 295.267 C 307.026 290.982,306.898 290.260,306.224 289.767 C 305.064 288.920,253.336 288.920,252.176 289.767 M169.424 290.566 C 170.269 291.183,170.433 293.012,171.027 308.500 L 171.299 315.600 177.182 315.600 C 182.662 315.600,183.199 315.668,185.032 316.598 C 186.692 317.441,187.558 317.597,190.569 317.598 C 196.100 317.601,195.600 315.597,195.600 337.782 C 195.600 359.680,196.131 357.600,190.542 357.600 C 186.789 357.600,186.350 357.681,185.322 358.564 L 184.200 359.529 184.070 365.660 C 183.907 373.339,184.430 372.800,177.133 372.800 C 169.275 372.800,169.200 372.858,169.200 378.902 C 169.200 384.245,169.529 384.000,162.351 384.000 C 154.324 384.000,154.000 384.237,154.000 390.104 C 154.000 396.233,156.972 395.600,128.218 395.600 C 100.016 395.600,102.800 396.133,102.800 390.730 L 102.800 386.821 101.620 386.210 C 100.780 385.776,99.218 385.600,96.202 385.600 C 90.327 385.600,90.000 385.278,90.000 379.498 C 90.000 374.164,90.310 374.400,83.300 374.400 C 77.344 374.400,75.598 374.015,75.048 372.582 C 74.724 371.736,74.724 333.864,75.048 333.018 C 75.598 331.585,77.344 331.200,83.300 331.200 C 87.231 331.200,89.191 331.049,89.520 330.720 C 89.875 330.365,90.000 326.686,90.000 316.646 C 90.000 303.239,90.012 303.039,90.870 302.126 L 91.739 301.200 103.338 301.200 C 117.433 301.200,116.400 301.632,116.400 295.738 C 116.400 289.343,113.319 290.000,143.324 290.000 C 164.536 290.000,168.773 290.092,169.424 290.566 M140.976 318.919 C 140.866 319.205,140.827 321.950,140.888 325.019 L 141.000 330.600 154.600 330.600 L 168.200 330.600 168.310 324.500 L 168.421 318.400 154.798 318.400 C 143.999 318.400,141.134 318.508,140.976 318.919 M254.176 318.919 C 254.066 319.205,254.027 321.950,254.088 325.019 L 254.200 330.600 267.900 330.705 L 281.600 330.811 281.600 324.605 L 281.600 318.400 267.987 318.400 C 257.197 318.400,254.334 318.508,254.176 318.919 M129.781 333.704 C 129.669 333.997,129.627 336.839,129.689 340.018 L 129.800 345.800 134.000 345.800 L 138.200 345.800 138.200 339.600 L 138.200 333.400 134.093 333.286 C 130.960 333.199,129.937 333.298,129.781 333.704 M284.576 333.718 C 284.467 334.004,284.427 336.839,284.489 340.018 L 284.600 345.800 288.340 345.916 C 290.754 345.990,292.279 345.866,292.640 345.567 C 293.383 344.950,293.454 334.414,292.720 333.680 C 292.028 332.988,284.843 333.022,284.576 333.718 M363.614 431.574 C 363.360 432.049,363.200 436.289,363.200 442.574 L 363.200 452.800 381.600 452.800 L 400.000 452.800 400.000 441.800 L 400.000 430.800 382.014 430.800 C 364.641 430.800,364.014 430.826,363.614 431.574 " stroke="none" fill="#444404" fill-rule="evenodd"/><path id="path4" d="M-0.000 203.558 L -0.000 407.116 155.897 406.970 C 302.798 406.832,311.822 406.784,312.297 406.135 C 313.188 404.916,312.973 398.121,312.026 397.614 C 311.521 397.344,303.907 397.200,290.071 397.200 C 264.603 397.200,267.096 397.850,266.800 391.137 L 266.600 386.600 259.713 386.400 C 251.011 386.147,251.451 386.481,251.258 379.986 L 251.116 375.200 245.218 375.200 C 235.979 375.200,236.329 375.534,236.090 366.500 L 235.918 360.000 231.403 360.000 C 227.554 360.000,226.749 359.887,225.944 359.235 L 225.000 358.471 225.000 337.603 C 225.000 313.048,224.324 315.600,230.826 315.600 C 233.177 315.600,235.663 315.487,236.350 315.350 L 237.600 315.100 237.600 309.332 C 237.600 301.429,237.429 301.600,245.343 301.600 L 251.123 301.600 251.262 295.967 C 251.385 290.945,251.484 290.273,252.176 289.767 C 253.336 288.920,305.064 288.920,306.224 289.767 C 306.898 290.260,307.026 290.982,307.200 295.267 L 307.400 300.200 320.000 300.420 C 326.930 300.541,332.623 300.676,332.651 300.720 C 333.577 302.160,333.684 304.092,333.547 316.896 L 333.400 330.600 339.890 330.800 C 345.973 330.987,346.437 331.057,347.290 331.911 L 348.200 332.822 348.200 352.800 L 348.200 372.778 347.290 373.689 C 346.437 374.543,345.973 374.613,339.890 374.800 L 333.400 375.000 333.286 379.142 C 333.211 381.852,333.331 383.476,333.635 383.842 C 334.024 384.311,339.338 384.400,367.049 384.400 L 400.000 384.400 400.000 192.200 L 400.000 0.000 200.000 0.000 L 0.000 0.000 -0.000 203.558 M238.400 82.400 C 239.135 83.135,239.200 83.733,239.200 89.800 L 239.200 96.400 244.900 96.402 C 254.227 96.406,254.125 96.333,254.400 103.200 L 254.600 108.200 261.133 108.400 C 270.234 108.679,269.268 104.988,269.117 138.889 L 269.000 165.178 268.090 166.089 C 267.238 166.943,266.773 167.013,260.690 167.200 L 254.200 167.400 254.000 173.890 C 253.732 182.582,254.182 182.132,245.490 182.400 L 239.000 182.600 238.800 185.290 C 238.455 189.926,238.877 189.778,225.588 189.918 C 217.923 189.999,213.736 189.885,212.298 189.556 C 208.818 188.761,199.117 188.654,196.225 189.379 C 188.176 191.398,183.600 189.683,183.600 184.647 L 183.600 182.867 176.813 182.734 C 168.024 182.561,168.660 183.184,168.400 174.487 L 168.200 167.800 161.464 167.600 C 154.962 167.407,154.700 167.367,153.956 166.446 C 152.970 165.227,152.935 109.706,153.919 108.720 C 154.287 108.351,156.433 108.142,161.319 108.000 L 168.200 107.800 168.312 102.951 C 168.464 96.376,168.126 96.640,176.607 96.466 L 183.132 96.332 183.266 89.807 C 183.384 84.066,183.491 83.181,184.162 82.441 C 185.333 81.149,237.109 81.109,238.400 82.400 M128.492 149.740 C 129.602 150.285,129.995 152.614,129.998 158.658 L 130.000 164.316 134.786 164.458 C 141.281 164.651,140.947 164.211,141.200 172.913 L 141.400 179.800 147.600 180.007 C 155.703 180.278,155.512 180.168,155.953 184.800 L 156.200 187.400 162.660 187.600 C 171.712 187.880,170.800 186.085,170.800 203.618 C 170.800 221.494,171.670 219.727,162.736 220.000 L 156.200 220.200 155.968 227.000 C 155.840 230.740,155.525 234.307,155.268 234.926 C 155.010 235.545,154.800 237.710,154.800 239.737 C 154.800 245.294,154.924 245.200,147.591 245.200 C 140.305 245.200,140.800 244.635,140.800 252.951 C 140.800 261.290,140.781 261.316,134.335 261.600 L 129.800 261.800 129.600 268.000 C 129.399 274.235,129.082 275.653,127.778 276.153 C 127.424 276.289,115.642 276.400,101.596 276.400 L 76.058 276.400 75.229 275.346 C 74.472 274.384,74.400 273.758,74.400 268.179 L 74.400 262.066 67.413 261.933 C 58.366 261.761,59.038 262.418,58.874 253.587 L 58.747 246.800 52.218 246.800 C 46.385 246.800,45.588 246.718,44.744 246.035 L 43.800 245.271 43.800 213.200 L 43.800 181.129 44.744 180.365 C 45.588 179.682,46.385 179.600,52.218 179.600 L 58.747 179.600 58.874 172.813 C 59.038 163.997,58.397 164.638,67.213 164.474 L 74.000 164.347 74.000 157.863 C 74.000 150.734,74.256 149.803,76.304 149.479 C 78.369 149.153,127.799 149.400,128.492 149.740 M346.149 149.578 C 348.564 150.139,348.588 150.212,348.734 157.619 L 348.867 164.400 354.808 164.400 C 363.903 164.400,363.586 164.108,363.594 172.467 C 363.602 180.789,362.904 180.000,370.261 180.000 C 376.284 180.000,376.461 180.024,377.418 180.982 L 378.400 181.964 378.400 213.138 C 378.400 250.625,379.492 246.120,370.336 246.400 L 363.800 246.600 363.600 252.820 C 363.412 258.659,363.053 260.434,361.891 261.265 C 361.841 261.301,358.830 261.436,355.200 261.565 L 348.600 261.800 348.400 268.336 C 348.121 277.450,351.742 276.400,320.585 276.400 L 294.858 276.400 294.029 275.346 C 293.273 274.384,293.200 273.758,293.200 268.187 L 293.200 262.082 288.165 261.941 C 281.397 261.751,281.600 262.003,281.600 253.806 C 281.600 250.448,281.488 247.137,281.350 246.450 L 281.100 245.200 275.281 245.200 C 267.862 245.200,268.000 245.298,268.000 240.070 C 268.000 237.005,267.864 236.112,267.300 235.491 C 266.699 234.828,266.582 233.703,266.475 227.559 L 266.350 220.400 259.819 220.400 C 253.985 220.400,253.188 220.318,252.344 219.635 L 251.400 218.871 251.400 203.850 C 251.400 185.509,250.444 187.471,259.513 187.200 L 266.200 187.000 266.420 183.900 C 266.718 179.697,266.460 179.834,274.519 179.600 L 281.400 179.400 281.624 172.400 C 281.747 168.550,281.882 165.373,281.924 165.339 C 282.621 164.781,285.353 164.400,288.660 164.400 L 292.800 164.400 292.806 158.100 C 292.812 151.067,293.098 149.959,295.011 149.549 C 296.877 149.150,344.417 149.177,346.149 149.578 M226.489 218.710 C 227.343 219.562,227.413 220.027,227.600 226.110 L 227.800 232.600 232.487 232.800 C 238.637 233.062,238.538 232.963,238.800 239.113 L 239.000 243.800 245.536 244.000 L 252.071 244.200 253.036 245.322 C 254.526 247.057,254.526 258.543,253.036 260.278 L 252.071 261.400 245.536 261.600 L 239.000 261.800 238.800 268.260 C 238.541 276.620,238.704 276.400,232.787 276.400 C 227.405 276.400,227.688 276.005,227.530 283.742 C 227.352 292.431,229.064 291.600,211.338 291.600 L 197.164 291.600 196.182 290.618 C 195.225 289.661,195.200 289.482,195.200 283.498 C 195.200 276.036,195.462 276.400,190.094 276.400 C 183.793 276.400,183.918 276.562,183.618 268.000 L 183.400 261.800 176.864 261.600 C 168.319 261.339,168.800 261.853,168.800 252.988 C 168.800 243.813,168.359 244.285,177.200 244.000 L 183.400 243.800 183.600 239.265 C 183.870 233.145,184.219 232.800,190.142 232.800 C 195.449 232.800,195.200 233.145,195.200 225.796 C 195.200 216.957,193.928 217.581,211.689 217.704 C 225.543 217.800,225.581 217.802,226.489 218.710 M170.469 289.862 C 171.096 290.430,171.201 291.181,171.205 295.162 C 171.214 302.179,170.657 301.600,177.392 301.600 C 185.273 301.600,185.200 301.527,185.200 309.390 L 185.200 315.072 186.219 315.536 C 186.784 315.793,189.098 316.000,191.419 316.000 C 197.809 316.000,197.200 313.708,197.200 337.738 C 197.200 361.761,197.915 359.297,190.860 359.600 L 186.200 359.800 185.966 366.600 C 185.837 370.340,185.702 373.439,185.666 373.486 C 185.046 374.296,182.972 374.626,177.400 374.800 L 171.000 375.000 170.800 379.687 C 170.529 386.033,170.898 385.747,162.687 386.000 L 156.200 386.200 156.000 390.600 C 155.799 395.015,155.375 396.494,154.178 396.953 C 153.824 397.089,142.139 397.200,128.212 397.200 C 97.962 397.200,101.098 397.894,100.800 391.137 L 100.600 386.600 95.519 386.400 C 89.176 386.150,89.451 386.417,89.200 380.282 L 89.000 375.400 82.264 375.200 C 72.978 374.924,74.000 377.695,74.000 352.800 C 74.000 327.905,72.978 330.676,82.264 330.400 L 89.000 330.200 89.200 315.920 C 89.353 304.960,89.521 301.518,89.919 301.120 C 90.314 300.725,93.435 300.552,102.919 300.400 L 115.400 300.200 115.513 295.417 C 115.602 291.683,115.769 290.476,116.275 289.917 C 117.238 288.853,169.295 288.800,170.469 289.862 " stroke="none" fill="#1c1c05" fill-rule="evenodd"/></g></svg>