<svg xmlns="http://www.w3.org/2000/svg" viewBox="0 41.900001525878906 290.51666259765625 263.45001220703125" data-asc="1.2" width="290.51666259765625" height="263.45001220703125"><defs/><g fill="#0000ff"><g transform="translate(0, 0)"><path d="M0.55 49.35Q0.25 48.70 0.13 48.08Q0 47.45 0 46.90Q0 44.95 1.35 43.67Q2.70 42.40 5 42.40Q7.20 42.40 9.38 42.58Q11.55 42.75 13.40 42.75Q14.80 42.75 15.93 42.58Q17.05 42.40 17.75 41.90Q18.65 43.55 18.65 45Q18.65 46.70 17.40 47.80Q16.15 48.90 13.50 48.90Q10.75 48.90 8.65 48.83Q6.55 48.75 4.90 48.75Q3.55 48.75 2.48 48.85Q1.40 48.95 0.55 49.35ZM68.20 49.35Q67.90 48.70 67.78 48.08Q67.65 47.45 67.65 46.90Q67.65 44.95 69 43.67Q70.35 42.40 72.65 42.40Q74.85 42.40 77.03 42.58Q79.20 42.75 81.05 42.75Q82.45 42.75 83.58 42.58Q84.70 42.40 85.40 41.90Q86.30 43.55 86.30 45Q86.30 46.70 85.05 47.80Q83.80 48.90 81.15 48.90Q78.40 48.90 76.30 48.83Q74.20 48.75 72.55 48.75Q71.20 48.75 70.13 48.85Q69.05 48.95 68.20 49.35ZM144.85 49.35Q144.55 48.70 144.43 48.08Q144.30 47.45 144.30 46.90Q144.30 44.95 145.65 43.67Q147 42.40 149.30 42.40Q151.50 42.40 153.68 42.58Q155.85 42.75 157.70 42.75Q159.10 42.75 160.23 42.58Q161.35 42.40 162.05 41.90Q162.95 43.55 162.95 45Q162.95 46.70 161.70 47.80Q160.45 48.90 157.80 48.90Q155.05 48.90 152.95 48.83Q150.85 48.75 149.20 48.75Q147.85 48.75 146.78 48.85Q145.70 48.95 144.85 49.35ZM221.50 49.35Q221.20 48.70 221.08 48.08Q220.95 47.45 220.95 46.90Q220.95 44.95 222.30 43.67Q223.65 42.40 225.95 42.40Q228.15 42.40 230.33 42.58Q232.50 42.75 234.35 42.75Q235.75 42.75 236.88 42.58Q238.00 42.40 238.70 41.90Q239.60 43.55 239.60 45Q239.60 46.70 238.35 47.80Q237.10 48.90 234.45 48.90Q231.70 48.90 229.60 48.83Q227.50 48.75 225.85 48.75Q224.50 48.75 223.43 48.85Q222.35 48.95 221.50 49.35Z"/></g><g transform="translate(0, 64)"><path d=""/></g><g transform="translate(0, 128)"><path d="M14.20 60.20Q12.75 60.25 11.30 59.95Q9.85 59.65 8.85 58.70Q8.90 57.45 8.82 55Q8.75 52.55 8.55 49.52Q8.35 46.50 7.92 43.40Q7.50 40.30 6.83 37.67Q6.15 35.05 5.20 33.45Q4.25 31.85 2.95 31.85Q1.80 31.85 0.35 33.10L0 32.80Q1.40 28.50 3.68 26.25Q5.95 24 8.40 24Q10.55 24 12 25.50Q13.45 27 14.32 29.52Q15.20 32.05 15.57 35.17Q15.95 38.30 15.95 41.55Q15.95 44.15 15.75 46.65Q15.55 49.15 15.20 51.25Q17.85 47.90 19.65 43.92Q21.45 39.95 22.40 36.02Q23.35 32.10 23.35 28.95Q23.35 28.35 23.30 27.73Q23.25 27.10 23.15 26.60Q24.20 25.25 25.85 24.52Q27.50 23.80 29.15 23.80Q30.75 23.80 31.95 24.48Q33.15 25.15 33.45 26.60Q32.80 31.35 30.88 36.10Q28.95 40.85 26.20 45.27Q23.45 49.70 20.32 53.50Q17.20 57.30 14.20 60.20ZM45.10 60.35Q41.45 60.35 39.05 58.88Q36.65 57.40 35.45 54.98Q34.25 52.55 34.25 49.75Q34.25 47.10 35.27 44.42Q36.30 41.75 38.28 39.55Q40.25 37.35 43.08 36Q45.90 34.65 49.45 34.65Q53.85 34.65 55.88 36.63Q57.90 38.60 57.90 41.40Q57.90 43.80 56.63 45.83Q55.35 47.85 53.25 49.08Q51.15 50.30 48.65 50.30Q47.35 50.30 46 49.90Q44.65 49.50 43.35 48.65Q43.60 51.75 45.15 53.15Q46.70 54.55 48.85 54.55Q50.35 54.55 51.85 53.98Q53.35 53.40 54.63 52.48Q55.90 51.55 56.60 50.50L56.95 50.75Q56.95 53.35 55.88 55.17Q54.80 57 53.05 58.15Q51.30 59.30 49.23 59.83Q47.15 60.35 45.10 60.35M46.25 46.85Q47.85 46.85 48.85 45.92Q49.85 45 50.35 43.75Q50.85 42.50 50.85 41.55Q50.85 40.40 50.20 39.63Q49.55 38.85 48.40 38.85Q47.50 38.85 46.43 39.50Q45.35 40.15 44.50 41.72Q43.65 43.30 43.40 46.10Q45 46.85 46.25 46.85ZM66.25 60.20Q64.45 60.20 63.05 58.73Q61.65 57.25 61.65 54.55Q61.65 53.25 61.95 51.60Q62.25 49.95 62.65 48.23Q63.05 46.50 63.35 44.98Q63.65 43.45 63.65 42.45Q63.65 41.40 63.28 40.77Q62.90 40.15 62.30 40.15Q61.35 40.15 60.35 41.45L60.05 41.25Q60.00 40.45 60.40 39.35Q60.80 38.25 61.65 37.22Q62.50 36.20 63.83 35.50Q65.15 34.80 66.95 34.80Q69.60 34.80 70.80 36.33Q72 37.85 72 40Q72 40.35 71.98 40.72Q71.95 41.10 71.90 41.45Q73.70 38.20 75.68 36.47Q77.65 34.75 79.35 34.75Q80.95 34.75 81.70 36Q82.45 37.25 82.45 39Q82.45 40.60 81.83 42.25Q81.20 43.90 79.98 44.98Q78.75 46.05 77 46L76.80 45.90Q76.75 44.60 75.95 43.85Q75.15 43.10 74.15 43.10Q72.80 43.10 71.63 44.45Q70.45 45.80 70.45 48.35Q70.45 49.90 70.80 51.70Q71.15 53.50 71.15 54.75Q71.15 56.25 70.45 57.50Q69.75 58.75 68.65 59.48Q67.55 60.20 66.25 60.20ZM92.45 60.45Q89.35 60.45 87.30 59.60Q85.25 58.75 84.25 57.42Q83.25 56.10 83.25 54.75Q83.25 52.85 84.95 51.38Q86.65 49.90 89.55 49.90Q89.55 52.45 90.20 53.98Q90.85 55.50 91.88 56.15Q92.90 56.80 93.85 56.80Q95 56.80 95.78 56.13Q96.55 55.45 96.55 54.45Q96.55 53.05 95.10 52Q93.65 50.95 91.35 49.65Q90.20 48.95 88.85 48.02Q87.50 47.10 86.55 45.77Q85.60 44.45 85.60 42.60Q85.60 40.65 86.73 39.15Q87.85 37.65 89.70 36.63Q91.55 35.60 93.70 35.08Q95.85 34.55 97.90 34.55Q101.75 34.55 103.70 36.10Q105.65 37.65 105.65 39.40Q105.65 40.90 104.15 42.10Q102.65 43.30 99.55 43.30Q99.60 40.75 98.50 39.58Q97.40 38.40 96.15 38.40Q95.25 38.40 94.65 38.95Q94.05 39.50 94.05 40.55Q94.05 41.75 94.83 42.63Q95.60 43.50 96.78 44.17Q97.95 44.85 99.20 45.45Q100.90 46.25 102.40 47.15Q103.90 48.05 104.85 49.20Q105.80 50.35 105.80 52Q105.80 54.25 103.98 56.17Q102.15 58.10 99.10 59.27Q96.05 60.45 92.45 60.45ZM118.10 33.25Q116.10 33.25 114.83 32.02Q113.55 30.80 113.55 28.95Q113.55 26.95 115.05 25.50Q116.55 24.05 118.70 24.05Q120.70 24.05 121.98 25.30Q123.25 26.55 123.25 28.40Q123.25 30.40 121.75 31.82Q120.25 33.25 118.10 33.25M114.60 60.20Q112.65 60.20 111.10 58.83Q109.55 57.45 109.55 54.40Q109.55 52.65 110.03 51.13Q110.50 49.60 111.13 48.15Q111.75 46.70 112.23 45.33Q112.70 43.95 112.70 42.60Q112.70 41.40 112.30 40.88Q111.90 40.35 111.35 40.35Q110.50 40.35 109.70 41.45L109.35 41.25Q109.55 39.25 110.63 37.83Q111.70 36.40 113.28 35.60Q114.85 34.80 116.40 34.80Q118.30 34.80 119.70 36.02Q121.10 37.25 121.10 40Q121.10 41.65 120.63 43.47Q120.15 45.30 119.53 47.10Q118.90 48.90 118.43 50.45Q117.95 52 117.95 53.10Q117.95 54.05 118.33 54.45Q118.70 54.85 119.15 54.85Q119.60 54.85 120.03 54.58Q120.45 54.30 120.65 53.95L121 54.05Q121 55.90 120.03 57.27Q119.05 58.65 117.60 59.42Q116.15 60.20 114.60 60.20ZM135.85 60.35Q132.10 60.35 129.65 58.85Q127.20 57.35 126.03 54.88Q124.85 52.40 124.85 49.60Q124.85 46.95 125.83 44.30Q126.80 41.65 128.68 39.47Q130.55 37.30 133.25 35.97Q135.95 34.65 139.45 34.65Q143.20 34.65 145.63 36.17Q148.05 37.70 149.22 40.20Q150.40 42.70 150.40 45.55Q150.40 48.15 149.45 50.77Q148.50 53.40 146.63 55.58Q144.75 57.75 142.05 59.05Q139.35 60.35 135.85 60.35M137.20 56.10Q138.55 56.10 139.45 54.70Q140.35 53.30 140.80 51.13Q141.25 48.95 141.25 46.70Q141.25 44.70 140.88 42.92Q140.50 41.15 139.75 40.02Q139 38.90 137.80 38.90Q136.50 38.90 135.57 40.30Q134.65 41.70 134.20 43.85Q133.75 46 133.75 48.30Q133.75 50.30 134.13 52.08Q134.50 53.85 135.25 54.98Q136 56.10 137.20 56.10ZM159.15 60.15Q157.30 60.15 155.80 58.67Q154.30 57.20 154.30 54.55Q154.30 53.25 154.65 51.60Q155 49.95 155.43 48.25Q155.85 46.55 156.20 45.05Q156.55 43.55 156.55 42.60Q156.55 41.60 156.15 41.02Q155.75 40.45 155.10 40.45Q154.25 40.45 153.25 41.45L152.95 41.25Q152.90 40.45 153.30 39.35Q153.70 38.25 154.53 37.22Q155.35 36.20 156.65 35.50Q157.95 34.80 159.75 34.80Q162.40 34.80 163.68 36.33Q164.95 37.85 164.95 40.05Q164.95 40.85 164.80 41.60Q165.85 40.05 167.40 38.47Q168.95 36.90 170.83 35.85Q172.70 34.80 174.70 34.80Q177.05 34.80 177.90 36.30Q178.75 37.80 178.75 40.05Q178.75 42.15 178.30 44.55Q177.85 46.95 177.40 49.17Q176.95 51.40 176.95 52.90Q176.95 54.90 178.10 54.90Q178.70 54.90 179.15 54.52Q179.60 54.15 179.75 53.80L180.10 53.95Q180.10 55.80 179.08 57.20Q178.05 58.60 176.50 59.38Q174.95 60.15 173.35 60.15Q171.40 60.15 169.90 58.80Q168.40 57.45 168.40 54.40Q168.40 52.60 168.88 50.50Q169.35 48.40 169.80 46.45Q170.25 44.50 170.25 43.25Q170.25 42.50 169.98 42.08Q169.70 41.65 169 41.65Q167.85 41.65 166.48 42.70Q165.10 43.75 164.13 45.50Q163.15 47.25 163.15 49.35Q163.15 50.70 163.48 51.95Q163.80 53.20 163.80 54.65Q163.80 57.35 162.40 58.75Q161 60.15 159.15 60.15ZM206.25 60.15Q204.55 60.15 203.15 59.63Q201.75 59.10 201.80 58.15Q202.05 54.05 202.75 49.75Q203.45 45.45 204 41.60Q202.45 43.85 200.57 45.15Q198.70 46.45 196.95 46.45Q194.95 46.45 193.38 44.52Q191.80 42.60 191.25 38.30Q191.95 38.35 192.65 38.42Q193.35 38.50 194 38.50Q196.80 38.50 199.57 37.83Q202.35 37.15 204.35 36.05Q204.15 33.30 205.22 32.17Q206.30 31.05 207.75 31.05Q209.30 31.05 210.40 31.95Q211.50 32.85 211.50 34.25Q211.50 34.90 211.18 35.63Q210.85 36.35 210.15 37.10Q210.30 41.35 210.30 46.80Q210.30 52.25 210.95 58.20Q210.65 59.15 209.25 59.65Q207.85 60.15 206.25 60.15ZM218.75 60.30Q216.70 60.30 215.35 59Q214.00 57.70 214.00 55.80Q214.00 53.65 215.58 52.13Q217.15 50.60 219.45 50.60Q221.50 50.60 222.88 51.90Q224.25 53.20 224.25 55.10Q224.25 57.25 222.65 58.77Q221.05 60.30 218.75 60.30ZM238.90 60.35Q234.80 60.35 232.08 58.80Q229.35 57.25 227.83 54.67Q226.30 52.10 225.95 49.05Q225.60 46 226.30 42.95Q227.00 39.90 228.70 37.33Q230.40 34.75 232.98 33.20Q235.55 31.65 238.90 31.65Q242.95 31.65 245.70 33.20Q248.45 34.75 249.95 37.33Q251.45 39.90 251.80 42.95Q252.15 46 251.45 49.05Q250.75 52.10 249.08 54.67Q247.40 57.25 244.83 58.80Q242.25 60.35 238.90 60.35M238.85 55.35Q243.10 55.35 243.10 45.70Q243.10 36.60 238.85 36.65Q234.60 36.60 234.60 46.30Q234.60 55.35 238.85 55.35ZM257.35 60.30Q255.30 60.30 253.95 59Q252.60 57.70 252.60 55.80Q252.60 53.65 254.18 52.13Q255.75 50.60 258.05 50.60Q260.10 50.60 261.48 51.90Q262.85 53.20 262.85 55.10Q262.85 57.25 261.25 58.77Q259.65 60.30 257.35 60.30ZM277.50 60.35Q273.40 60.35 270.68 58.80Q267.95 57.25 266.43 54.67Q264.90 52.10 264.55 49.05Q264.20 46 264.90 42.95Q265.60 39.90 267.30 37.33Q269.00 34.75 271.58 33.20Q274.15 31.65 277.50 31.65Q281.55 31.65 284.30 33.20Q287.05 34.75 288.55 37.33Q290.05 39.90 290.40 42.95Q290.75 46 290.05 49.05Q289.35 52.10 287.68 54.67Q286.00 57.25 283.43 58.80Q280.85 60.35 277.50 60.35M277.45 55.35Q281.70 55.35 281.70 45.70Q281.70 36.60 277.45 36.65Q273.20 36.60 273.20 46.30Q273.20 55.35 277.45 55.35Z"/></g><g transform="translate(0, 192)"><path d=""/></g><g transform="translate(0, 256)"><path d="M0.55 49.35Q0.25 48.70 0.13 48.08Q0 47.45 0 46.90Q0 44.95 1.35 43.67Q2.70 42.40 5 42.40Q7.20 42.40 9.38 42.58Q11.55 42.75 13.40 42.75Q14.80 42.75 15.93 42.58Q17.05 42.40 17.75 41.90Q18.65 43.55 18.65 45Q18.65 46.70 17.40 47.80Q16.15 48.90 13.50 48.90Q10.75 48.90 8.65 48.83Q6.55 48.75 4.90 48.75Q3.55 48.75 2.48 48.85Q1.40 48.95 0.55 49.35ZM68.20 49.35Q67.90 48.70 67.78 48.08Q67.65 47.45 67.65 46.90Q67.65 44.95 69 43.67Q70.35 42.40 72.65 42.40Q74.85 42.40 77.03 42.58Q79.20 42.75 81.05 42.75Q82.45 42.75 83.58 42.58Q84.70 42.40 85.40 41.90Q86.30 43.55 86.30 45Q86.30 46.70 85.05 47.80Q83.80 48.90 81.15 48.90Q78.40 48.90 76.30 48.83Q74.20 48.75 72.55 48.75Q71.20 48.75 70.13 48.85Q69.05 48.95 68.20 49.35ZM144.85 49.35Q144.55 48.70 144.43 48.08Q144.30 47.45 144.30 46.90Q144.30 44.95 145.65 43.67Q147 42.40 149.30 42.40Q151.50 42.40 153.68 42.58Q155.85 42.75 157.70 42.75Q159.10 42.75 160.23 42.58Q161.35 42.40 162.05 41.90Q162.95 43.55 162.95 45Q162.95 46.70 161.70 47.80Q160.45 48.90 157.80 48.90Q155.05 48.90 152.95 48.83Q150.85 48.75 149.20 48.75Q147.85 48.75 146.78 48.85Q145.70 48.95 144.85 49.35ZM221.50 49.35Q221.20 48.70 221.08 48.08Q220.95 47.45 220.95 46.90Q220.95 44.95 222.30 43.67Q223.65 42.40 225.95 42.40Q228.15 42.40 230.33 42.58Q232.50 42.75 234.35 42.75Q235.75 42.75 236.88 42.58Q238.00 42.40 238.70 41.90Q239.60 43.55 239.60 45Q239.60 46.70 238.35 47.80Q237.10 48.90 234.45 48.90Q231.70 48.90 229.60 48.83Q227.50 48.75 225.85 48.75Q224.50 48.75 223.43 48.85Q222.35 48.95 221.50 49.35Z"/></g></g></svg>